<?xml version="1.0" encoding="UTF-8" standalone="no"?>
<svg
   xmlns:dc="http://purl.org/dc/elements/1.1/"
   xmlns:cc="http://creativecommons.org/ns#"
   xmlns:rdf="http://www.w3.org/1999/02/22-rdf-syntax-ns#"
   xmlns:svg="http://www.w3.org/2000/svg"
   xmlns="http://www.w3.org/2000/svg"
   xmlns:sodipodi="http://sodipodi.sourceforge.net/DTD/sodipodi-0.dtd"
   xmlns:inkscape="http://www.inkscape.org/namespaces/inkscape"
   width="155.60283"
   height="41.53669"
   viewBox="0 0 155.60283 41.536689"
   version="1.1"
   id="svg70"
   sodipodi:docname="aicurious.svg"
   inkscape:version="1.0.1 (3bc2e813f5, 2020-09-07)">
  <metadata
     id="metadata74">
    <rdf:RDF>
      <cc:Work
         rdf:about="">
        <dc:format>image/svg+xml</dc:format>
        <dc:type
           rdf:resource="http://purl.org/dc/dcmitype/StillImage" />
      </cc:Work>
    </rdf:RDF>
  </metadata>
  <sodipodi:namedview
     pagecolor="#ffffff"
     bordercolor="#666666"
     borderopacity="1"
     objecttolerance="10"
     gridtolerance="10"
     guidetolerance="10"
     inkscape:pageopacity="0"
     inkscape:pageshadow="2"
     inkscape:window-width="1920"
     inkscape:window-height="1001"
     id="namedview72"
     showgrid="false"
     inkscape:zoom="3.1297632"
     inkscape:cx="73.3088"
     inkscape:cy="34.678677"
     inkscape:window-x="-9"
     inkscape:window-y="-9"
     inkscape:window-maximized="1"
     inkscape:current-layer="Group_1709"
     inkscape:document-rotation="0" />
  <defs
     id="defs53">
    <linearGradient
       id="linear-gradient"
       y1="0.324"
       x2="1"
       y2="0.336"
       gradientUnits="objectBoundingBox">
      <stop
         offset="0"
         stop-color="#ff3158"
         id="stop43" />
      <stop
         offset="1"
         stop-color="#ff1249"
         id="stop45" />
    </linearGradient>
    <linearGradient
       id="linear-gradient-2"
       y1="0.28999999"
       x2="1"
       y2="0.303"
       gradientUnits="objectBoundingBox">
      <stop
         offset="0"
         stop-color="#ff4e70"
         id="stop48" />
      <stop
         offset="1"
         stop-color="#ff3158"
         id="stop50" />
    </linearGradient>
  </defs>
  <g
     id="Group_1709"
     data-name="Group 1709"
     transform="translate(284.44162,3068.6899)">
    <g
       id="g889"
       style="opacity:1">
      <path
         style="color:#000000;font-style:normal;font-variant:normal;font-weight:normal;font-stretch:normal;font-size:medium;line-height:normal;font-family:sans-serif;font-variant-ligatures:normal;font-variant-position:normal;font-variant-caps:normal;font-variant-numeric:normal;font-variant-alternates:normal;font-variant-east-asian:normal;font-feature-settings:normal;font-variation-settings:normal;text-indent:0;text-align:start;text-decoration:none;text-decoration-line:none;text-decoration-style:solid;text-decoration-color:#000000;letter-spacing:normal;word-spacing:normal;text-transform:none;writing-mode:lr-tb;direction:ltr;text-orientation:mixed;dominant-baseline:auto;baseline-shift:baseline;text-anchor:start;white-space:normal;shape-padding:0;shape-margin:0;inline-size:0;clip-rule:nonzero;display:inline;overflow:visible;visibility:visible;isolation:auto;mix-blend-mode:normal;color-interpolation:sRGB;color-interpolation-filters:linearRGB;solid-color:#000000;solid-opacity:1;vector-effect:none;fill:#002538;fill-opacity:1;fill-rule:nonzero;stroke-width:1.2116;stroke-linecap:butt;stroke-linejoin:miter;stroke-miterlimit:4;stroke-dasharray:none;stroke-dashoffset:0;stroke-opacity:1.0;color-rendering:auto;image-rendering:auto;shape-rendering:auto;text-rendering:auto;enable-background:accumulate;stop-color:#000000;stop-opacity:1;stroke:none;"
         d="m -276.45379,-3068.6899 h 139.62717 c 4.42526,0 7.98783,3.5625 7.98783,7.9878 v 25.561 c 0,4.4253 -3.56257,7.9878 -7.98783,7.9878 h -139.62717 c -4.42526,0 -7.98783,-3.5625 -7.98783,-7.9878 v -25.561 c 0,-4.4253 3.56257,-7.9878 7.98783,-7.9878 z"
         id="path891" />
      <path
         style="color:#000000;font-style:normal;font-variant:normal;font-weight:normal;font-stretch:normal;font-size:medium;line-height:normal;font-family:sans-serif;font-variant-ligatures:normal;font-variant-position:normal;font-variant-caps:normal;font-variant-numeric:normal;font-variant-alternates:normal;font-variant-east-asian:normal;font-feature-settings:normal;font-variation-settings:normal;text-indent:0;text-align:start;text-decoration:none;text-decoration-line:none;text-decoration-style:solid;text-decoration-color:#000000;letter-spacing:normal;word-spacing:normal;text-transform:none;writing-mode:lr-tb;direction:ltr;text-orientation:mixed;dominant-baseline:auto;baseline-shift:baseline;text-anchor:start;white-space:normal;shape-padding:0;shape-margin:0;inline-size:0;clip-rule:nonzero;display:inline;overflow:visible;visibility:visible;isolation:auto;mix-blend-mode:normal;color-interpolation:sRGB;color-interpolation-filters:linearRGB;solid-color:#000000;solid-opacity:1;vector-effect:none;fill-opacity:1;fill-rule:nonzero;stroke-width:1.2116;stroke-linecap:butt;stroke-linejoin:miter;stroke-miterlimit:4;stroke-dasharray:none;stroke-dashoffset:0;stroke-opacity:1.0;color-rendering:auto;image-rendering:auto;shape-rendering:auto;text-rendering:auto;enable-background:accumulate;stop-color:#000000;stop-opacity:1;stroke:none;"
         d="M -276.45312 -3069.2949 C -281.20351 -3069.2949 -285.04688 -3065.4516 -285.04688 -3060.7012 L -285.04688 -3035.1406 C -285.04688 -3030.3902 -281.20351 -3026.5469 -276.45312 -3026.5469 L -136.82617 -3026.5469 C -132.07578 -3026.5469 -128.23242 -3030.3902 -128.23242 -3035.1406 L -128.23242 -3060.7012 C -128.23242 -3065.4516 -132.07578 -3069.2949 -136.82617 -3069.2949 L -276.45312 -3069.2949 z M -276.45312 -3068.084 L -136.82617 -3068.084 C -132.72604 -3068.084 -129.44531 -3064.8013 -129.44531 -3060.7012 L -129.44531 -3035.1406 C -129.44531 -3031.0405 -132.72604 -3027.7598 -136.82617 -3027.7598 L -276.45312 -3027.7598 C -280.55326 -3027.7598 -283.83594 -3031.0405 -283.83594 -3035.1406 L -283.83594 -3060.7012 C -283.83594 -3064.8013 -280.55326 -3068.084 -276.45312 -3068.084 z "
         id="path893" />
    </g>
    <g
       aria-label="AI Curious"
       id="text928"
       style="font-style:normal;font-weight:normal;font-size:40px;line-height:1.25;font-family:sans-serif;fill:#ffffff;fill-opacity:1;stroke:none"
       transform="matrix(0.57701127,0,0,0.57701127,-139.65108,-1282.078)">
      <path
         d="m -169.90115,-3044.7419 h -11.48438 v -2.9687 h 3.80859 v -23.1445 h -3.80859 v -2.9688 h 11.48438 v 2.9688 h -3.8086 v 23.1445 h 3.8086 z"
         id="path932"
         style="fill:#ffffff;fill-opacity:1" />
      <path
         d="m -126.79569,-3046.8512 q -1.07421,0.4687 -1.95312,0.8789 -0.85938,0.4101 -2.26563,0.8593 -1.1914,0.3711 -2.59765,0.625 -1.38672,0.2735 -3.06641,0.2735 -3.16406,0 -5.76172,-0.8789 -2.57812,-0.8985 -4.49218,-2.793 -1.875,-1.8555 -2.92969,-4.707 -1.05469,-2.8711 -1.05469,-6.6602 0,-3.5937 1.01563,-6.4258 1.01562,-2.832 2.92968,-4.7851 1.85547,-1.8946 4.47266,-2.8906 2.63672,-0.9961 5.83984,-0.9961 2.34375,0 4.66797,0.5664 2.34375,0.5664 5.19531,1.9922 v 4.5898 h -0.29296 q -2.40235,-2.0117 -4.76563,-2.9297 -2.36328,-0.918 -5.05859,-0.918 -2.20703,0 -3.98438,0.7227 -1.75781,0.7031 -3.14453,2.207 -1.34766,1.4649 -2.10937,3.711 -0.74219,2.2265 -0.74219,5.1562 0,3.0664 0.82031,5.2735 0.83984,2.207 2.14844,3.5937 1.36719,1.4453 3.18359,2.1484 1.83594,0.6836 3.86719,0.6836 2.79297,0 5.23437,-0.957 2.44141,-0.957 4.57032,-2.8711 h 0.27343 z"
         id="path934"
         style="fill:#ffffff;fill-opacity:1" />
      <path
         d="m -103.53397,-3044.7419 h -3.67187 v -2.4218 q -1.85547,1.4648 -3.55469,2.2461 -1.69922,0.7812 -3.75,0.7812 -3.4375,0 -5.35156,-2.0898 -1.91406,-2.1094 -1.91406,-6.1719 v -14.1602 h 3.67187 v 12.4219 q 0,1.6602 0.15625,2.8516 0.15625,1.1718 0.66406,2.0117 0.52735,0.8594 1.36719,1.25 0.83984,0.3906 2.44141,0.3906 1.42578,0 3.10547,-0.7422 1.69921,-0.7422 3.16406,-1.8945 v -16.2891 h 3.67187 z"
         id="path936"
         style="fill:#ffffff;fill-opacity:1" />
      <path
         d="m -82.69412,-3062.5544 h -0.195313 q -0.820312,-0.1953 -1.601562,-0.2734 -0.761719,-0.098 -1.816407,-0.098 -1.699218,0 -3.28125,0.7618 -1.582031,0.7421 -3.046875,1.9336 v 15.4882 h -3.67187 v -21.8164 h 3.67187 v 3.2227 q 2.1875,-1.7578 3.847657,-2.4805 1.679687,-0.7422 3.417968,-0.7422 0.957032,0 1.386719,0.059 0.429688,0.039 1.289063,0.1758 z"
         id="path938"
         style="fill:#ffffff;fill-opacity:1" />
      <path
         d="m -75.291777,-3070.2106 h -4.140625 v -3.8086 h 4.140625 z m -0.234375,25.4687 h -3.671875 v -21.8164 h 3.671875 z"
         id="path940"
         style="fill:#ffffff;fill-opacity:1" />
      <path
         d="m -49.666777,-3055.6403 q 0,5.332 -2.734375,8.418 -2.734375,3.0859 -7.324218,3.0859 -4.628907,0 -7.363282,-3.0859 -2.714843,-3.086 -2.714843,-8.418 0,-5.332 2.714843,-8.418 2.734375,-3.1054 7.363282,-3.1054 4.589843,0 7.324218,3.1054 2.734375,3.086 2.734375,8.418 z m -3.789062,0 q 0,-4.2383 -1.660156,-6.2891 -1.660157,-2.0703 -4.609375,-2.0703 -2.988282,0 -4.648438,2.0703 -1.640625,2.0508 -1.640625,6.2891 0,4.1016 1.660156,6.2305 1.660157,2.1093 4.628907,2.1093 2.929687,0 4.589843,-2.0898 1.679688,-2.1094 1.679688,-6.25 z"
         id="path942"
         style="fill:#ffffff;fill-opacity:1" />
      <path
         d="m -25.897245,-3044.7419 h -3.671875 v -2.4218 q -1.855469,1.4648 -3.554688,2.2461 -1.699219,0.7812 -3.75,0.7812 -3.4375,0 -5.351562,-2.0898 -1.914063,-2.1094 -1.914063,-6.1719 v -14.1602 h 3.671875 v 12.4219 q 0,1.6602 0.15625,2.8516 0.15625,1.1718 0.664063,2.0117 0.527343,0.8594 1.367187,1.25 0.839844,0.3906 2.441406,0.3906 1.425782,0 3.105469,-0.7422 1.699219,-0.7422 3.164063,-1.8945 v -16.2891 h 3.671875 z"
         id="path944"
         style="fill:#ffffff;fill-opacity:1" />
      <path
         d="m -3.0847454,-3051.0309 q 0,2.9883 -2.4804688,4.9023 -2.4609378,1.9141 -6.7382808,1.9141 -2.421875,0 -4.453125,-0.5664 -2.011719,-0.586 -3.378907,-1.2696 v -4.1211 h 0.195313 q 1.738281,1.3086 3.867187,2.0899 2.128907,0.7617 4.082032,0.7617 2.421875,0 3.789062,-0.7812 1.367188,-0.7813 1.367188,-2.461 0,-1.289 -0.742188,-1.9531 -0.742187,-0.6641 -2.851562,-1.1328 -0.78125,-0.1758 -2.050782,-0.4102 -1.25,-0.2343 -2.285156,-0.5078 -2.871094,-0.7617 -4.082031,-2.2265 -1.191406,-1.4844 -1.191406,-3.6329 0,-1.3476 0.546875,-2.539 0.566406,-1.1914 1.699218,-2.1289 1.09375,-0.918 2.773438,-1.4453 1.699219,-0.5469 3.789062,-0.5469 1.953125,0 3.945313,0.4883 2.0117186,0.4687 3.3398436,1.1523 v 3.9258 h -0.1953125 q -1.40625,-1.0352 -3.4179691,-1.7383 -2.011718,-0.7226 -3.945312,-0.7226 -2.011719,0 -3.398438,0.7812 -1.386718,0.7617 -1.386718,2.2852 0,1.3476 0.839843,2.0312 0.820313,0.6836 2.65625,1.1133 1.015625,0.2344 2.265625,0.4687 1.269532,0.2344 2.109375,0.4297 2.558594,0.586 3.9453128,2.0117 1.3867188,1.4454 1.3867188,3.8282 z"
         id="path946"
         style="fill:#ffffff;fill-opacity:1" />
    </g>
    <g
       id="g911">
      <g
         id="g924"
         transform="matrix(0.04354431,0,0,0.04354431,-252.52151,-2916.437)">
        <g
           id="g895"
           style="opacity:1">
          <path
             style="color:#000000;font-style:normal;font-variant:normal;font-weight:normal;font-stretch:normal;font-size:medium;line-height:normal;font-family:sans-serif;font-variant-ligatures:normal;font-variant-position:normal;font-variant-caps:normal;font-variant-numeric:normal;font-variant-alternates:normal;font-variant-east-asian:normal;font-feature-settings:normal;font-variation-settings:normal;text-indent:0;text-align:start;text-decoration:none;text-decoration-line:none;text-decoration-style:solid;text-decoration-color:#000000;letter-spacing:normal;word-spacing:normal;text-transform:none;writing-mode:lr-tb;direction:ltr;text-orientation:mixed;dominant-baseline:auto;baseline-shift:baseline;text-anchor:start;white-space:normal;shape-padding:0;shape-margin:0;inline-size:0;clip-rule:nonzero;display:inline;overflow:visible;visibility:visible;isolation:auto;mix-blend-mode:normal;color-interpolation:sRGB;color-interpolation-filters:linearRGB;solid-color:#000000;solid-opacity:1;vector-effect:none;fill:#44ccff;fill-opacity:1;fill-rule:nonzero;stroke-width:1;stroke-linecap:butt;stroke-linejoin:miter;stroke-miterlimit:4;stroke-dasharray:none;stroke-dashoffset:0;stroke-opacity:1.0;color-rendering:auto;image-rendering:auto;shape-rendering:auto;text-rendering:auto;enable-background:accumulate;stop-color:#000000;stop-opacity:1;stroke:none;"
             d="m -206.63842,-2697.2869 c -113.12774,-7.4646 -213.22596,-73.2374 -264.29032,-173.6606 -23.82999,-46.8641 -34.65322,-92.175 -34.65322,-145.0739 0,-52.8988 10.82323,-98.2097 34.65322,-145.0738 43.82511,-86.1865 126.28378,-148.9739 220.54032,-167.9284 40.14812,-8.0736 87.35187,-8.0736 127.5,0 94.256526,18.9545 176.715206,81.7419 220.540316,167.9284 23.829994,46.8641 34.653214,92.175 34.653214,145.0738 0,52.8989 -10.82322,98.2098 -34.653214,145.0739 -57.46231,113.0054 -178.3087,181.9733 -304.290316,173.6606 z"
             id="path897" />
          <path
             style="color:#000000;font-style:normal;font-variant:normal;font-weight:normal;font-stretch:normal;font-size:medium;line-height:normal;font-family:sans-serif;font-variant-ligatures:normal;font-variant-position:normal;font-variant-caps:normal;font-variant-numeric:normal;font-variant-alternates:normal;font-variant-east-asian:normal;font-feature-settings:normal;font-variation-settings:normal;text-indent:0;text-align:start;text-decoration:none;text-decoration-line:none;text-decoration-style:solid;text-decoration-color:#000000;letter-spacing:normal;word-spacing:normal;text-transform:none;writing-mode:lr-tb;direction:ltr;text-orientation:mixed;dominant-baseline:auto;baseline-shift:baseline;text-anchor:start;white-space:normal;shape-padding:0;shape-margin:0;inline-size:0;clip-rule:nonzero;display:inline;overflow:visible;visibility:visible;isolation:auto;mix-blend-mode:normal;color-interpolation:sRGB;color-interpolation-filters:linearRGB;solid-color:#000000;solid-opacity:1;vector-effect:none;fill-opacity:1;fill-rule:nonzero;stroke-width:1;stroke-linecap:butt;stroke-linejoin:miter;stroke-miterlimit:4;stroke-dasharray:none;stroke-dashoffset:0;stroke-opacity:1.0;color-rendering:auto;image-rendering:auto;shape-rendering:auto;text-rendering:auto;enable-background:accumulate;stop-color:#000000;stop-opacity:1;stroke:none;"
             d="M -186.63867 -3335.5801 C -208.50736 -3335.5801 -230.37514 -3333.5579 -250.48633 -3329.5137 C -344.89684 -3310.5282 -427.47951 -3247.6472 -471.375 -3161.3223 C -495.23628 -3114.3966 -506.08203 -3068.9885 -506.08203 -3016.0215 C -506.08203 -2963.0544 -495.23628 -2917.6463 -471.375 -2870.7207 C -420.23096 -2770.1408 -319.97282 -2704.2631 -206.67188 -2696.7871 C -80.488002 -2688.4611 40.544225 -2757.5361 98.097656 -2870.7207 C 121.95895 -2917.6463 132.80469 -2963.0544 132.80469 -3016.0215 C 132.80469 -3068.9885 121.95895 -3114.3966 98.097656 -3161.3223 C 54.202162 -3247.6472 -28.378567 -3310.5282 -122.78906 -3329.5137 C -142.90026 -3333.5579 -164.76998 -3335.5801 -186.63867 -3335.5801 z M -186.63867 -3334.5781 C -164.83142 -3334.5781 -143.02326 -3332.5625 -122.98633 -3328.5332 C -28.883772 -3309.6097 53.452305 -3246.9172 97.207031 -3160.8691 C 121.00573 -3114.0666 131.80469 -3068.8521 131.80469 -3016.0215 C 131.80469 -2963.1908 121.00573 -2917.9764 97.207031 -2871.1738 C 39.835843 -2758.3476 -80.82611 -2689.4858 -206.60547 -2697.7852 C -319.56 -2705.2383 -419.49774 -2770.9073 -470.48242 -2871.1738 C -494.28112 -2917.9764 -505.08203 -2963.1908 -505.08203 -3016.0215 C -505.08203 -3068.8521 -494.28112 -3114.0666 -470.48242 -3160.8691 C -426.7277 -3246.9172 -344.39163 -3309.6097 -250.28906 -3328.5332 C -230.25213 -3332.5625 -208.44592 -3334.5781 -186.63867 -3334.5781 z "
             id="path899" />
        </g>
        <path
           style="fill:#000000;fill-opacity:0.205128;fill-rule:evenodd;stroke:none;stroke-width:1px;stroke-linecap:butt;stroke-linejoin:miter;stroke-opacity:1"
           d="m -52.643804,-3213.0732 -206.133846,75.6498 -67.75,318.0782 123.47852,122.2597 c 124.682516,6.7819 243.784926,-61.9297 300.701166,-173.8613 23.829994,-46.8641 34.652344,-92.1754 34.652344,-145.0742 0,-3.416 -0.0459,-6.7992 -0.13672,-10.1543 z"
           id="path3420"
           inkscape:connector-curvature="0"
           sodipodi:nodetypes="ccccsscc" />
        <g
           transform="translate(-506.60968,-3336.1206)"
           id="flowRoot3719"
           style="font-style:normal;font-variant:normal;font-weight:normal;font-stretch:normal;font-size:40px;line-height:1.25;font-family:'Tlwg Typist';-inkscape-font-specification:'Tlwg Typist';letter-spacing:0px;word-spacing:0px;fill:#000000;fill-opacity:1;stroke:none" />
        <g
           transform="translate(-506.60968,-3336.1206)"
           id="flowRoot3727"
           style="font-style:normal;font-variant:normal;font-weight:normal;font-stretch:normal;font-size:40px;line-height:1.25;font-family:'Tlwg Typist';-inkscape-font-specification:'Tlwg Typist';letter-spacing:0px;word-spacing:0px;fill:#000000;fill-opacity:1;stroke:none" />
        <g
           transform="translate(-506.60968,-3336.1206)"
           id="flowRoot3728"
           style="font-style:normal;font-variant:normal;font-weight:normal;font-stretch:normal;font-size:40px;line-height:1.25;font-family:'Tlwg Typist';-inkscape-font-specification:'Tlwg Typist';letter-spacing:0px;word-spacing:0px;fill:#000000;fill-opacity:1;stroke:none" />
      </g>
      <g
         aria-label="A"
         transform="scale(1.0450696,0.95687406)"
         id="text880"
         style="font-style:normal;font-weight:normal;font-size:25.269px;line-height:1.25;font-family:sans-serif;fill:#000000;fill-opacity:1;stroke:none;stroke-width:0.631726">
        <path
           d="m -240.6873,-3176.2744 h -2.60339 l -1.80141,-5.1204 h -7.94591 l -1.80141,5.1204 h -2.48001 l 6.6874,-18.3719 h 3.25733 z m -5.15744,-7.218 -3.22032,-9.0193 -3.23265,9.0193 z"
           style="fill:#ffffff;stroke-width:0.631726"
           id="path886" />
      </g>
    </g>
  </g>
</svg>
