<?xml version="1.0" encoding="UTF-8" standalone="no"?>
<svg
   xmlns:dc="http://purl.org/dc/elements/1.1/"
   xmlns:cc="http://creativecommons.org/ns#"
   xmlns:rdf="http://www.w3.org/1999/02/22-rdf-syntax-ns#"
   xmlns:svg="http://www.w3.org/2000/svg"
   xmlns="http://www.w3.org/2000/svg"
   xmlns:sodipodi="http://sodipodi.sourceforge.net/DTD/sodipodi-0.dtd"
   xmlns:inkscape="http://www.inkscape.org/namespaces/inkscape"
   width="498.46555"
   height="52.198917"
   viewBox="0 0 498.46554 52.198916"
   version="1.1"
   id="svg70"
   sodipodi:docname="logo.svg"
   inkscape:version="1.0.1 (3bc2e813f5, 2020-09-07)">
  <metadata
     id="metadata74">
    <rdf:RDF>
      <cc:Work
         rdf:about="">
        <dc:format>image/svg+xml</dc:format>
        <dc:type
           rdf:resource="http://purl.org/dc/dcmitype/StillImage" />
      </cc:Work>
    </rdf:RDF>
  </metadata>
  <sodipodi:namedview
     pagecolor="#ffffff"
     bordercolor="#666666"
     borderopacity="1"
     objecttolerance="10"
     gridtolerance="10"
     guidetolerance="10"
     inkscape:pageopacity="0"
     inkscape:pageshadow="2"
     inkscape:window-width="1920"
     inkscape:window-height="1001"
     id="namedview72"
     showgrid="false"
     inkscape:zoom="1.5648816"
     inkscape:cx="223.70229"
     inkscape:cy="79.885855"
     inkscape:window-x="-9"
     inkscape:window-y="-9"
     inkscape:window-maximized="1"
     inkscape:current-layer="Group_1709"
     inkscape:document-rotation="0" />
  <defs
     id="defs53">
    <rect
       x="-461.74765"
       y="-2380.2407"
       width="899.46838"
       height="96.617393"
       id="rect948" />
    <linearGradient
       id="linear-gradient"
       y1="0.324"
       x2="1"
       y2="0.336"
       gradientUnits="objectBoundingBox">
      <stop
         offset="0"
         stop-color="#ff3158"
         id="stop43" />
      <stop
         offset="1"
         stop-color="#ff1249"
         id="stop45" />
    </linearGradient>
    <linearGradient
       id="linear-gradient-2"
       y1="0.28999999"
       x2="1"
       y2="0.303"
       gradientUnits="objectBoundingBox">
      <stop
         offset="0"
         stop-color="#ff4e70"
         id="stop48" />
      <stop
         offset="1"
         stop-color="#ff3158"
         id="stop50" />
    </linearGradient>
    <linearGradient
       id="linear-gradient-3"
       y1="0.324"
       x2="1"
       y2="0.336"
       gradientUnits="objectBoundingBox">
      <stop
         offset="0"
         stop-color="#ff3158"
         id="stop43-6" />
      <stop
         offset="1"
         stop-color="#ff1249"
         id="stop45-7" />
    </linearGradient>
    <linearGradient
       id="linear-gradient-2-5"
       y1="0.28999999"
       x2="1"
       y2="0.303"
       gradientUnits="objectBoundingBox">
      <stop
         offset="0"
         stop-color="#ff4e70"
         id="stop48-3" />
      <stop
         offset="1"
         stop-color="#ff3158"
         id="stop50-5" />
    </linearGradient>
  </defs>
  <g
     id="Group_1709"
     data-name="Group 1709"
     transform="translate(300.40451,3077.4115)">
    <g
       aria-label="VNOpenAI"
       transform="matrix(0.84694382,0,0,0.88645977,-31.235694,-422.99469)"
       id="text78"
       style="font-style:normal;font-variant:normal;font-weight:normal;font-stretch:normal;font-size:25.9685px;line-height:1.25;font-family:'Eras Bold ITC';-inkscape-font-specification:'Eras Bold ITC';fill:#000000;fill-opacity:1;stroke:none;stroke-width:0.64921" />
    <g
       id="g938"
       transform="matrix(1.6658453,0,0,1.6911735,157.44221,2103.3497)">
      <path
         inkscape:connector-curvature="0"
         id="rect146"
         d="m -259.81588,-3063.412 h 5.4545 c 8.32528,0 15.02759,5.2193 15.02759,11.7024 v 7.4607 c 0,6.4831 -6.70231,11.7024 -15.02759,11.7024 h -5.4545 c -8.32529,0 -15.0276,-5.2193 -15.0276,-11.7024 v -7.4607 c 0,-6.4831 6.70231,-11.7024 15.0276,-11.7024 z"
         style="font-style:normal;font-variant:normal;font-weight:normal;font-stretch:normal;font-size:medium;line-height:1.25;font-family:sans-serif;-inkscape-font-specification:sans-serif;letter-spacing:0px;word-spacing:0px;fill:#00aad4;fill-opacity:1;stroke:none;stroke-width:0.0592595" />
      <path
         inkscape:transform-center-y="-1.2564441"
         inkscape:transform-center-x="14.688296"
         inkscape:connector-curvature="0"
         id="rect146-9"
         d="m -259.44562,-3060.8079 h 4.65854 c 7.11042,0 12.8347,4.3373 12.8347,9.725 v 6.2001 c 0,5.3877 -5.72428,9.7251 -12.8347,9.7251 h -4.65854 c -7.11042,0 -12.83469,-4.3374 -12.83469,-9.7251 v -6.2001 c 0,-5.3877 5.72427,-9.725 12.83469,-9.725 z"
         style="font-style:normal;font-variant:normal;font-weight:normal;font-stretch:normal;font-size:12.3846px;line-height:1.25;font-family:sans-serif;-inkscape-font-specification:sans-serif;letter-spacing:0px;word-spacing:0px;fill:#00222b;fill-opacity:1;stroke:none;stroke-width:0.0499248" />
      <g
         id="g994"
         transform="matrix(-0.24921084,0,0,0.2590221,-244.70094,-3060.9414)"
         style="fill:#ffffff;fill-opacity:1">
        <g
           id="g935"
           style="fill:#ffffff;fill-opacity:1"
           transform="translate(0,4.361207)">
          <g
             id="g933"
             style="fill:#ffffff;fill-opacity:1">
            <path
               d="m 17.275,52.156 c -4.124,0 -7.468,3.343 -7.468,7.468 0,0.318 0.026,0.631 0.066,0.938 0.463,3.681 3.596,6.528 7.401,6.528 3.908,0 7.112,-3.004 7.437,-6.83 0.017,-0.209 0.031,-0.422 0.031,-0.637 10e-4,-4.124 -3.342,-7.467 -7.467,-7.467 z m -3.738,4.654 1.522,1.523 c -0.118,0.203 -0.211,0.422 -0.271,0.656 h -2.146 c 0.11,-0.812 0.421,-1.554 0.895,-2.179 z m -0.905,3.472 h 2.163 c 0.061,0.23 0.151,0.448 0.271,0.648 l -1.526,1.525 c -0.473,-0.62 -0.791,-1.362 -0.908,-2.173 z m 3.997,3.981 C 15.82,64.15 15.085,63.833 14.463,63.364 l 1.518,-1.519 c 0.2,0.117 0.419,0.203 0.648,0.263 z m 0,-7.123 c -0.235,0.062 -0.455,0.154 -0.66,0.275 l -1.521,-1.521 c 0.625,-0.475 1.367,-0.789 2.181,-0.902 z m 1.293,-2.15 c 0.814,0.113 1.557,0.429 2.181,0.903 l -1.52,1.521 c -0.204,-0.121 -0.426,-0.213 -0.66,-0.275 z m 0,9.271 v -2.152 c 0.23,-0.061 0.447,-0.146 0.647,-0.264 l 1.519,1.519 c -0.622,0.469 -1.358,0.784 -2.166,0.897 z m 3.092,-1.799 -1.531,-1.533 c 0.12,-0.201 0.217,-0.416 0.278,-0.646 h 2.146 c -0.114,0.808 -0.419,1.556 -0.893,2.179 z m -1.25,-3.473 c -0.061,-0.234 -0.153,-0.453 -0.271,-0.656 l 1.524,-1.523 c 0.471,0.625 0.782,1.367 0.894,2.18 h -2.147 z"
               id="path927"
               style="fill:#ffffff;fill-opacity:1" />
            <path
               d="m 79.284,52.156 c -4.124,0 -7.468,3.343 -7.468,7.468 0,0.318 0.026,0.631 0.066,0.938 0.463,3.681 3.596,6.528 7.4,6.528 3.908,0 7.112,-3.004 7.438,-6.83 0.017,-0.209 0.031,-0.422 0.031,-0.637 0.002,-4.124 -3.342,-7.467 -7.467,-7.467 z m -3.738,4.654 1.521,1.523 c -0.118,0.203 -0.211,0.422 -0.271,0.656 H 74.65 c 0.111,-0.812 0.422,-1.554 0.896,-2.179 z m -0.904,3.472 h 2.163 c 0.061,0.23 0.151,0.448 0.271,0.648 l -1.525,1.525 c -0.475,-0.62 -0.794,-1.362 -0.909,-2.173 z m 3.996,3.981 c -0.809,-0.113 -1.544,-0.43 -2.166,-0.899 l 1.518,-1.519 c 0.2,0.117 0.419,0.203 0.648,0.263 z m 0,-7.123 c -0.235,0.062 -0.455,0.154 -0.66,0.275 l -1.521,-1.521 c 0.625,-0.475 1.366,-0.789 2.181,-0.902 z m 1.294,-2.15 c 0.814,0.113 1.557,0.429 2.181,0.903 l -1.521,1.521 c -0.204,-0.121 -0.426,-0.215 -0.66,-0.275 z m 0,9.271 v -2.152 c 0.23,-0.061 0.447,-0.146 0.647,-0.264 l 1.519,1.519 c -0.622,0.469 -1.359,0.784 -2.166,0.897 z m 3.091,-1.799 -1.531,-1.531 c 0.12,-0.202 0.218,-0.416 0.278,-0.647 h 2.146 c -0.114,0.807 -0.418,1.555 -0.893,2.178 z m -1.25,-3.473 c -0.061,-0.234 -0.152,-0.453 -0.271,-0.656 l 1.523,-1.523 c 0.472,0.625 0.782,1.367 0.895,2.18 h -2.147 z"
               id="path929"
               style="fill:#ffffff;fill-opacity:1" />
            <path
               d="m 97.216,48.29 v -5.526 c 0,-0.889 -0.646,-1.642 -1.524,-1.779 -2.107,-0.33 -5.842,-0.953 -7.52,-1.47 -2.406,-0.742 -11.702,-4.678 -14.921,-5.417 -3.22,-0.739 -17.738,-4.685 -31.643,0.135 -2.353,0.815 -12.938,5.875 -19.162,8.506 -1.833,0.04 -19.976,3.822 -20.942,6.414 -0.966,2.593 -1.269,3.851 -1.447,4.509 -0.178,0.658 0,3.807 1.348,6 1.374,0.777 4.019,1.299 7.077,1.649 C 8.447,61.124 8.409,60.94 8.385,60.751 8.332,60.347 8.307,59.978 8.307,59.626 c 0,-4.945 4.022,-8.969 8.968,-8.969 4.946,0 8.968,4.023 8.968,8.969 0,0.254 -0.017,0.506 -0.036,0.754 -0.047,0.555 -0.147,1.094 -0.292,1.613 0.007,0 0.024,0 0.024,0 l 44.516,-0.896 c -0.02,-0.115 -0.046,-0.229 -0.061,-0.346 -0.053,-0.402 -0.078,-0.772 -0.078,-1.125 0,-4.945 4.022,-8.968 8.968,-8.968 4.946,0 8.969,4.022 8.969,8.968 0,0.019 -0.002,0.035 -0.003,0.053 l 0.19,-0.016 7.611,-1.433 c 0,0 2.915,-1.552 2.915,-5.822 0.001,-2.848 -1.75,-4.118 -1.75,-4.118 z M 53.057,43.051 36.432,43.56 c 0.306,-2.491 -1.169,-3.05 -1.169,-3.05 6.609,-5.999 19.929,-6.202 19.929,-6.202 z m 18.658,-0.761 -15.15,0.509 1.373,-8.49 c 7.83,-0.102 12.303,1.626 12.303,1.626 l 2.237,3.61 z m 8.541,-0.052 h -4.221 l -4.22,-5.795 c 3.166,1.26 5.7,2.502 7.209,3.287 0.916,0.476 1.416,1.493 1.232,2.508 z"
               id="path931"
               style="fill:#ffffff;fill-opacity:1" />
          </g>
        </g>
        <g
           id="g937"
           style="fill:#ffffff;fill-opacity:1" />
        <g
           id="g939"
           style="fill:#ffffff;fill-opacity:1" />
        <g
           id="g941"
           style="fill:#ffffff;fill-opacity:1" />
        <g
           id="g943"
           style="fill:#ffffff;fill-opacity:1" />
        <g
           id="g945"
           style="fill:#ffffff;fill-opacity:1" />
        <g
           id="g947"
           style="fill:#ffffff;fill-opacity:1" />
        <g
           id="g949"
           style="fill:#ffffff;fill-opacity:1" />
        <g
           id="g951"
           style="fill:#ffffff;fill-opacity:1" />
        <g
           id="g953"
           style="fill:#ffffff;fill-opacity:1" />
        <g
           id="g955"
           style="fill:#ffffff;fill-opacity:1" />
        <g
           id="g957"
           style="fill:#ffffff;fill-opacity:1" />
        <g
           id="g959"
           style="fill:#ffffff;fill-opacity:1" />
        <g
           id="g961"
           style="fill:#ffffff;fill-opacity:1" />
        <g
           id="g963"
           style="fill:#ffffff;fill-opacity:1" />
        <g
           id="g965"
           style="fill:#ffffff;fill-opacity:1" />
      </g>
    </g>
    <g
       aria-label="Awesome Autonomous"
       id="text890"
       style="font-style:normal;font-weight:normal;font-size:40px;line-height:1.25;font-family:sans-serif;fill:#000000;fill-opacity:1;stroke:none"
       transform="matrix(0.8650083,0,0,0.88552107,-43.464279,-332.83425)">
      <path
         d="m -196.03658,-3060.5642 h -12.10937 l -1.79688,3.75 q -0.37109,0.7812 -0.37109,1.2305 0,0.8593 1.30859,1.1914 v 0.625 h -8.82812 v -0.625 q 0.78125,-0.1563 1.19141,-0.5469 0.41015,-0.3906 0.9375,-1.5234 l 9.80468,-20.4883 q 0.46875,-0.9766 0.46875,-1.5625 0,-0.8985 -1.13281,-1.2891 v -0.625 h 9.45313 v 0.625 q -1.15235,0.332 -1.15235,1.1524 0,0.5664 0.3711,1.289 l 10.15625,20.5469 q 0.64453,1.3086 1.13281,1.7969 0.48828,0.4687 1.30859,0.625 v 0.625 h -9.80469 v -0.625 q 1.28907,-0.2149 1.28907,-1.211 0,-0.4101 -0.39063,-1.2109 z m -1.67968,-3.6524 -4.31641,-9.4921 -4.375,9.4921 z"
         style="font-style:normal;font-variant:normal;font-weight:normal;font-stretch:normal;font-family:'Copperplate Gothic Bold';-inkscape-font-specification:'Copperplate Gothic Bold, '"
         id="path892" />
      <path
         d="m -168.26314,-3068.9626 -4.78515,11.8945 q -0.35157,0.8789 -0.35157,1.4453 0,1.0937 1.28907,1.3281 v 0.5274 h -8.14454 v -0.5274 q 1.17188,-0.2929 1.17188,-1.3281 0,-0.5273 -0.35156,-1.4453 l -5.78125,-14.9219 q -0.66407,-1.7187 -1.13282,-2.2851 -0.44921,-0.586 -1.36718,-0.8204 v -0.5468 h 8.32031 v 0.5468 q -1.21094,0.3907 -1.21094,1.2305 0,0.4102 0.39063,1.4063 l 4.10156,10.332 4.08203,-10.2539 q 0.37109,-0.918 0.37109,-1.4063 0,-0.9765 -1.30859,-1.3086 v -0.5468 h 9.72656 v 0.5468 q -1.26953,0.4102 -1.26953,1.3672 0,0.4297 0.33203,1.2696 l 3.98438,10.332 3.98437,-10.4297 q 0.25391,-0.6836 0.25391,-1.1914 0,-0.5469 -0.27344,-0.8398 -0.27344,-0.293 -0.99609,-0.5079 v -0.5468 h 8.51562 v 0.5468 q -0.95703,0.3516 -1.40625,0.8985 -0.42968,0.5273 -1.09375,2.207 l -5.85937,14.9219 q -0.3125,0.8008 -0.3125,1.4062 0,1.1328 1.32812,1.3672 v 0.5274 h -8.47656 v -0.5274 q 1.25,-0.3515 1.25,-1.4258 0,-0.2734 -0.42969,-1.3476 z"
         style="font-style:normal;font-variant:normal;font-weight:normal;font-stretch:normal;font-family:'Copperplate Gothic Bold';-inkscape-font-specification:'Copperplate Gothic Bold, '"
         id="path894" />
      <path
         d="m -140.07954,-3063.0642 v 5.332 h 13.88671 q 0.60547,0 0.91797,-0.2734 0.33203,-0.2735 0.52735,-0.9961 h 0.54687 v 6.4844 h -0.54687 q -0.17578,-0.6836 -0.50782,-0.9766 -0.33203,-0.2734 -0.9375,-0.2734 h -20.37109 v -0.5469 q 0.68359,-0.1758 0.95703,-0.5078 0.29297,-0.3321 0.29297,-0.9375 v -17.8906 q 0,-0.6055 -0.27344,-0.918 -0.27343,-0.3125 -0.97656,-0.5274 v -0.5468 h 19.76563 q 0.625,0 0.9375,-0.2735 0.33203,-0.2734 0.52734,-0.9765 h 0.52734 v 6.4843 h -0.52734 q -0.19531,-0.7226 -0.52734,-0.9961 -0.3125,-0.2734 -0.9375,-0.2734 h -13.28125 v 4.8047 h 8.24218 q 0.60547,0 0.91797,-0.2734 0.33203,-0.2735 0.54688,-0.9766 h 0.52734 v 6.3281 h -0.52734 q -0.19532,-0.7031 -0.52735,-0.9765 -0.3125,-0.293 -0.9375,-0.293 z"
         style="font-style:normal;font-variant:normal;font-weight:normal;font-stretch:normal;font-family:'Copperplate Gothic Bold';-inkscape-font-specification:'Copperplate Gothic Bold, '"
         id="path896" />
      <path
         d="m -99.8647,-3073.6697 -2.63672,5.0977 -0.46875,-0.2539 q 0,-0.6446 -0.41016,-1.0157 -1.11328,-0.996 -3.28125,-1.6406 -2.16796,-0.6445 -4.39453,-0.6445 -1.89453,0 -3.35937,0.5273 -2.10938,0.7618 -2.10938,2.2071 0,0.957 1.01563,1.3672 1.01562,0.3906 3.92578,0.625 l 3.08594,0.2343 q 4.04297,0.3125 6.15234,1.5625 1.17188,0.7032 1.93359,1.875 0.957036,1.4649 0.957036,3.3008 0,3.3399 -3.007816,5.2734 -2.87109,1.8555 -7.77343,1.8555 -4.94141,0 -9.55079,-2.0898 -0.3125,-0.1367 -0.52734,-0.1367 -0.39062,0 -0.72266,0.4687 l -0.48828,-0.1953 2.2461,-5.3516 0.48828,0.1953 q 0,0.1172 0,0.1563 0,0.5078 0.39062,0.8594 0.97657,0.8593 3.37891,1.5039 2.40234,0.625 4.74609,0.625 2.07032,0 3.71094,-0.5469 2.03125,-0.6641 2.03125,-2.1484 0,-1.1914 -1.40625,-1.6602 -0.9375,-0.3125 -3.37891,-0.5273 l -3.0664,-0.2539 q -2.48047,-0.1954 -3.78906,-0.5079 -1.3086,-0.3125 -2.28516,-0.9179 -1.25,-0.7813 -1.95313,-2.1289 -0.70312,-1.3477 -0.70312,-2.9493 0,-3.5937 3.08594,-5.4882 2.8125,-1.7188 6.95312,-1.7188 2.2461,0 4.17969,0.5078 1.95312,0.4883 4.64844,1.7383 0.80078,0.3711 1.11328,0.3711 0.3125,0 0.80078,-0.4297 z"
         style="font-style:normal;font-variant:normal;font-weight:normal;font-stretch:normal;font-family:'Copperplate Gothic Bold';-inkscape-font-specification:'Copperplate Gothic Bold, '"
         id="path898" />
      <path
         d="m -83.966263,-3076.1111 q 5.214844,0 8.691406,2.6563 4.160157,3.2031 4.160157,8.9257 0,5.3711 -4.160157,8.5743 -3.4375,2.6562 -8.652343,2.6562 -5.214844,0 -8.652344,-2.6562 -4.179688,-3.2032 -4.179688,-8.75 0,-5.6055 4.179688,-8.75 3.457031,-2.5977 8.613281,-2.6563 z m 0.01953,4.1406 q -3.378906,0 -5.507812,2.168 -1.972656,2.0313 -1.972656,5.0977 0,3.0468 1.972656,5.0781 2.128906,2.1875 5.527344,2.1875 3.378906,0 5.507812,-2.1875 1.972656,-2.0117 1.972656,-4.9805 0,-3.2226 -1.972656,-5.1953 -2.148437,-2.1289 -5.527344,-2.168 z"
         style="font-style:normal;font-variant:normal;font-weight:normal;font-stretch:normal;font-family:'Copperplate Gothic Bold';-inkscape-font-specification:'Copperplate Gothic Bold, '"
         id="path900" />
      <path
         d="m -53.77095,-3054.4509 -7.96875,-13.6914 v 12.3828 q 0,0.6054 0.273437,0.9375 0.273438,0.3125 0.976563,0.5273 v 0.5274 h -7.265625 v -0.5469 q 0.683593,-0.1758 0.957031,-0.5078 0.292969,-0.3321 0.292969,-0.9375 v -17.8906 q 0,-0.6055 -0.273438,-0.918 -0.273437,-0.332 -0.976562,-0.5274 v -0.5468 h 9.238281 v 0.5468 q -0.917969,0.293 -0.917969,1.1133 0,0.8008 0.664063,1.9531 l 5.449218,9.1993 5.488282,-9.0625 q 0.9375,-1.543 0.9375,-2.1875 0,-0.8008 -0.957032,-1.0157 v -0.5468 h 9.003907 v 0.5468 q -0.703125,0.1954 -0.976563,0.5274 -0.273437,0.3125 -0.273437,0.918 v 17.8906 q 0,0.6054 0.273437,0.9375 0.273438,0.332 0.976563,0.5273 v 0.5274 h -7.734375 v -0.5469 q 0.683593,-0.1758 0.957031,-0.5078 0.292969,-0.3321 0.292969,-0.9375 v -12.3828 z"
         style="font-style:normal;font-variant:normal;font-weight:normal;font-stretch:normal;font-family:'Copperplate Gothic Bold';-inkscape-font-specification:'Copperplate Gothic Bold, '"
         id="path902" />
      <path
         d="m -28.517044,-3063.0642 v 5.332 h 13.886719 q 0.605468,0 0.917968,-0.2734 0.332032,-0.2735 0.527344,-0.9961 h 0.546875 v 6.4844 h -0.546875 q -0.175781,-0.6836 -0.507812,-0.9766 -0.332032,-0.2734 -0.9375,-0.2734 h -20.371094 v -0.5469 q 0.683594,-0.1758 0.957031,-0.5078 0.292969,-0.3321 0.292969,-0.9375 v -17.8906 q 0,-0.6055 -0.273438,-0.918 -0.273437,-0.3125 -0.976562,-0.5274 v -0.5468 h 19.765625 q 0.625,0 0.9375,-0.2735 0.332031,-0.2734 0.527344,-0.9765 h 0.527343 v 6.4843 h -0.527343 q -0.195313,-0.7226 -0.527344,-0.9961 -0.3125,-0.2734 -0.9375,-0.2734 h -13.28125 v 4.8047 h 8.242187 q 0.605469,0 0.917969,-0.2734 0.332031,-0.2735 0.546875,-0.9766 h 0.527344 v 6.3281 h -0.527344 q -0.195312,-0.7031 -0.527344,-0.9765 -0.3125,-0.293 -0.9375,-0.293 z"
         style="font-style:normal;font-variant:normal;font-weight:normal;font-stretch:normal;font-family:'Copperplate Gothic Bold';-inkscape-font-specification:'Copperplate Gothic Bold, '"
         id="path904" />
      <path
         d="M 20.682175,-3060.5642 H 8.5727997 l -1.796875,3.75 q -0.3710938,0.7812 -0.3710938,1.2305 0,0.8593 1.3085938,1.1914 v 0.625 h -8.828125 v -0.625 q 0.78124998,-0.1563 1.19140623,-0.5469 0.41015625,-0.3906 0.93749997,-1.5234 l 9.8046871,-20.4883 q 0.46875,-0.9766 0.46875,-1.5625 0,-0.8985 -1.132812,-1.2891 v -0.625 h 9.453125 v 0.625 q -1.152344,0.332 -1.152344,1.1524 0,0.5664 0.371094,1.289 l 10.15625,20.5469 q 0.644531,1.3086 1.132812,1.7969 0.488282,0.4687 1.308594,0.625 v 0.625 h -9.804687 v -0.625 q 1.289062,-0.2149 1.289062,-1.211 0,-0.4101 -0.390625,-1.2109 z m -1.679688,-3.6524 -4.316406,-9.4921 -4.375,9.4921 z"
         style="font-style:normal;font-variant:normal;font-weight:normal;font-stretch:normal;font-family:'Copperplate Gothic Bold';-inkscape-font-specification:'Copperplate Gothic Bold, '"
         id="path906" />
      <path
         d="m 54.744675,-3073.6501 v 11.582 q 0,3.9648 -1.5625,5.8203 -2.519532,2.9492 -9.492188,2.9492 -4.667969,0 -7.539062,-1.4258 -2.070313,-1.0351 -2.832032,-2.9492 -0.703125,-1.7578 -0.703125,-4.3945 v -11.582 q 0,-0.6055 -0.273437,-0.918 -0.273438,-0.3125 -0.976563,-0.5274 v -0.5468 h 7.753907 v 0.5468 q -0.722657,0.1954 -0.996094,0.5274 -0.273438,0.3125 -0.273438,0.918 v 10.5273 q 0,1.8359 0.3125,2.8125 0.332032,0.9766 1.132813,1.6016 1.601562,1.2695 4.628906,1.2695 3.027344,0 4.628906,-1.2695 0.78125,-0.625 1.09375,-1.6016 0.3125,-0.9766 0.3125,-2.8125 v -10.5273 q 0,-0.6055 -0.273437,-0.918 -0.253906,-0.3125 -0.976563,-0.5274 v -0.5468 h 7.285157 v 0.5468 q -0.703125,0.1954 -0.976563,0.5274 -0.273437,0.3125 -0.273437,0.918 z"
         style="font-style:normal;font-variant:normal;font-weight:normal;font-stretch:normal;font-family:'Copperplate Gothic Bold';-inkscape-font-specification:'Copperplate Gothic Bold, '"
         id="path908" />
      <path
         d="m 71.482956,-3071.6775 v 15.918 q 0,0.6054 0.273437,0.9375 0.273438,0.3125 0.976563,0.5273 v 0.5274 h -7.734375 v -0.5469 q 0.683594,-0.1758 0.957031,-0.5078 0.292969,-0.3321 0.292969,-0.9375 v -15.918 h -6.445313 q -0.625,0 -0.957031,0.293 -0.3125,0.2734 -0.507812,0.9765 h -0.527344 v -6.4843 h 0.546875 q 0.175781,0.6836 0.488281,0.9765 0.332031,0.2735 0.957031,0.2735 h 18.125 q 0.625,0 0.9375,-0.2735 0.332032,-0.2734 0.527344,-0.9765 h 0.527344 v 6.4843 h -0.527344 q -0.195312,-0.7031 -0.527344,-0.9765 -0.3125,-0.293 -0.9375,-0.293 z"
         style="font-style:normal;font-variant:normal;font-weight:normal;font-stretch:normal;font-family:'Copperplate Gothic Bold';-inkscape-font-specification:'Copperplate Gothic Bold, '"
         id="path910" />
      <path
         d="m 94.412643,-3076.1111 q 5.214844,0 8.691407,2.6563 4.16016,3.2031 4.16016,8.9257 0,5.3711 -4.16016,8.5743 -3.4375,2.6562 -8.652344,2.6562 -5.214844,0 -8.652344,-2.6562 -4.179687,-3.2032 -4.179687,-8.75 0,-5.6055 4.179687,-8.75 3.457031,-2.5977 8.613281,-2.6563 z m 0.01953,4.1406 q -3.378907,0 -5.507813,2.168 -1.972656,2.0313 -1.972656,5.0977 0,3.0468 1.972656,5.0781 2.128906,2.1875 5.527344,2.1875 3.378906,0 5.507812,-2.1875 1.972654,-2.0117 1.972654,-4.9805 0,-3.2226 -1.972654,-5.1953 -2.148437,-2.1289 -5.527343,-2.168 z"
         style="font-style:normal;font-variant:normal;font-weight:normal;font-stretch:normal;font-family:'Copperplate Gothic Bold';-inkscape-font-specification:'Copperplate Gothic Bold, '"
         id="path912" />
      <path
         d="m 116.63921,-3068.1814 v 12.4219 q 0,0.6054 0.27343,0.9375 0.29297,0.332 0.97657,0.5273 v 0.5274 h -7.26563 v -0.5469 q 0.68359,-0.1758 0.95703,-0.5078 0.29297,-0.3321 0.29297,-0.9375 v -17.8906 q 0,-0.6055 -0.27344,-0.918 -0.27343,-0.3125 -0.97656,-0.5274 v -0.5468 h 8.39844 v 0.5468 q -0.85938,0.2149 -0.85938,0.7618 0,0.4687 0.625,1.0937 l 11.71875,11.6406 v -12.0507 q 0,-0.6055 -0.27343,-0.918 -0.27344,-0.332 -0.97657,-0.5274 v -0.5468 h 7.26563 v 0.5468 q -0.70313,0.1954 -0.97656,0.5274 -0.27344,0.3125 -0.27344,0.918 v 17.8906 q 0,0.6054 0.27344,0.9375 0.27343,0.3125 0.97656,0.5273 v 0.5274 h -7.83203 v -0.5274 q 0.85937,-0.1758 0.85937,-0.7226 0,-0.2735 -0.23437,-0.5664 -0.23438,-0.293 -1.07422,-1.1524 z"
         style="font-style:normal;font-variant:normal;font-weight:normal;font-stretch:normal;font-family:'Copperplate Gothic Bold';-inkscape-font-specification:'Copperplate Gothic Bold, '"
         id="path914" />
      <path
         d="m 152.67436,-3076.1111 q 5.21485,0 8.69141,2.6563 4.16015,3.2031 4.16015,8.9257 0,5.3711 -4.16015,8.5743 -3.4375,2.6562 -8.65235,2.6562 -5.21484,0 -8.65234,-2.6562 -4.17969,-3.2032 -4.17969,-8.75 0,-5.6055 4.17969,-8.75 3.45703,-2.5977 8.61328,-2.6563 z m 0.0195,4.1406 q -3.3789,0 -5.50781,2.168 -1.97266,2.0313 -1.97266,5.0977 0,3.0468 1.97266,5.0781 2.12891,2.1875 5.52734,2.1875 3.37891,0 5.50782,-2.1875 1.97265,-2.0117 1.97265,-4.9805 0,-3.2226 -1.97265,-5.1953 -2.14844,-2.1289 -5.52735,-2.168 z"
         style="font-style:normal;font-variant:normal;font-weight:normal;font-stretch:normal;font-family:'Copperplate Gothic Bold';-inkscape-font-specification:'Copperplate Gothic Bold, '"
         id="path916" />
      <path
         d="m 182.86967,-3054.4509 -7.96875,-13.6914 v 12.3828 q 0,0.6054 0.27344,0.9375 0.27344,0.3125 0.97656,0.5273 v 0.5274 h -7.26562 v -0.5469 q 0.68359,-0.1758 0.95703,-0.5078 0.29297,-0.3321 0.29297,-0.9375 v -17.8906 q 0,-0.6055 -0.27344,-0.918 -0.27344,-0.332 -0.97656,-0.5274 v -0.5468 h 9.23828 v 0.5468 q -0.91797,0.293 -0.91797,1.1133 0,0.8008 0.66406,1.9531 l 5.44922,9.1993 5.48828,-9.0625 q 0.9375,-1.543 0.9375,-2.1875 0,-0.8008 -0.95703,-1.0157 v -0.5468 h 9.00391 v 0.5468 q -0.70313,0.1954 -0.97656,0.5274 -0.27344,0.3125 -0.27344,0.918 v 17.8906 q 0,0.6054 0.27344,0.9375 0.27343,0.332 0.97656,0.5273 v 0.5274 h -7.73438 v -0.5469 q 0.6836,-0.1758 0.95704,-0.5078 0.29296,-0.3321 0.29296,-0.9375 v -12.3828 z"
         style="font-style:normal;font-variant:normal;font-weight:normal;font-stretch:normal;font-family:'Copperplate Gothic Bold';-inkscape-font-specification:'Copperplate Gothic Bold, '"
         id="path918" />
      <path
         d="m 213.94389,-3076.1111 q 5.21485,0 8.69141,2.6563 4.16016,3.2031 4.16016,8.9257 0,5.3711 -4.16016,8.5743 -3.4375,2.6562 -8.65234,2.6562 -5.21485,0 -8.65235,-2.6562 -4.17969,-3.2032 -4.17969,-8.75 0,-5.6055 4.17969,-8.75 3.45703,-2.5977 8.61328,-2.6563 z m 0.0195,4.1406 q -3.3789,0 -5.50781,2.168 -1.97265,2.0313 -1.97265,5.0977 0,3.0468 1.97265,5.0781 2.12891,2.1875 5.52735,2.1875 3.3789,0 5.50781,-2.1875 1.97265,-2.0117 1.97265,-4.9805 0,-3.2226 -1.97265,-5.1953 -2.14844,-2.1289 -5.52735,-2.168 z"
         style="font-style:normal;font-variant:normal;font-weight:normal;font-stretch:normal;font-family:'Copperplate Gothic Bold';-inkscape-font-specification:'Copperplate Gothic Bold, '"
         id="path920" />
      <path
         d="m 253.10405,-3073.6501 v 11.582 q 0,3.9648 -1.5625,5.8203 -2.51953,2.9492 -9.49219,2.9492 -4.66797,0 -7.53906,-1.4258 -2.07031,-1.0351 -2.83203,-2.9492 -0.70313,-1.7578 -0.70313,-4.3945 v -11.582 q 0,-0.6055 -0.27343,-0.918 -0.27344,-0.3125 -0.97657,-0.5274 v -0.5468 h 7.75391 v 0.5468 q -0.72266,0.1954 -0.99609,0.5274 -0.27344,0.3125 -0.27344,0.918 v 10.5273 q 0,1.8359 0.3125,2.8125 0.33203,0.9766 1.13281,1.6016 1.60156,1.2695 4.62891,1.2695 3.02734,0 4.6289,-1.2695 0.78125,-0.625 1.09375,-1.6016 0.3125,-0.9766 0.3125,-2.8125 v -10.5273 q 0,-0.6055 -0.27343,-0.918 -0.25391,-0.3125 -0.97657,-0.5274 v -0.5468 h 7.28516 v 0.5468 q -0.70313,0.1954 -0.97656,0.5274 -0.27344,0.3125 -0.27344,0.918 z"
         style="font-style:normal;font-variant:normal;font-weight:normal;font-stretch:normal;font-family:'Copperplate Gothic Bold';-inkscape-font-specification:'Copperplate Gothic Bold, '"
         id="path922" />
      <path
         d="m 278.80717,-3073.6697 -2.63671,5.0977 -0.46875,-0.2539 q 0,-0.6446 -0.41016,-1.0157 -1.11328,-0.996 -3.28125,-1.6406 -2.16797,-0.6445 -4.39453,-0.6445 -1.89453,0 -3.35938,0.5273 -2.10937,0.7618 -2.10937,2.2071 0,0.957 1.01562,1.3672 1.01563,0.3906 3.92578,0.625 l 3.08594,0.2343 q 4.04297,0.3125 6.15235,1.5625 1.17187,0.7032 1.93359,1.875 0.95703,1.4649 0.95703,3.3008 0,3.3399 -3.00781,5.2734 -2.8711,1.8555 -7.77344,1.8555 -4.94141,0 -9.55078,-2.0898 -0.3125,-0.1367 -0.52734,-0.1367 -0.39063,0 -0.72266,0.4687 l -0.48828,-0.1953 2.24609,-5.3516 0.48828,0.1953 q 0,0.1172 0,0.1563 0,0.5078 0.39063,0.8594 0.97656,0.8593 3.3789,1.5039 2.40235,0.625 4.7461,0.625 2.07031,0 3.71094,-0.5469 2.03125,-0.6641 2.03125,-2.1484 0,-1.1914 -1.40625,-1.6602 -0.9375,-0.3125 -3.37891,-0.5273 l -3.06641,-0.2539 q -2.48047,-0.1954 -3.78906,-0.5079 -1.30859,-0.3125 -2.28516,-0.9179 -1.25,-0.7813 -1.95312,-2.1289 -0.70313,-1.3477 -0.70313,-2.9493 0,-3.5937 3.08594,-5.4882 2.8125,-1.7188 6.95313,-1.7188 2.24609,0 4.17968,0.5078 1.95313,0.4883 4.64844,1.7383 0.80078,0.3711 1.11328,0.3711 0.3125,0 0.80078,-0.4297 z"
         style="font-style:normal;font-variant:normal;font-weight:normal;font-stretch:normal;font-family:'Copperplate Gothic Bold';-inkscape-font-specification:'Copperplate Gothic Bold, '"
         id="path924" />
    </g>
  </g>
</svg>
